<svg xmlns="http://www.w3.org/2000/svg" viewBox="0 0 221.46 318.71"><defs><style>.cls-1{fill:#298892;}.cls-2{font-size:81.72px;fill:#104155;font-family:BebasNeueBold, Bebas Neue;font-weight:700;letter-spacing:0.02em;}.cls-3{letter-spacing:0.02em;}</style></defs><title>Aktiv 1</title><g id="Lag_2" data-name="Lag 2"><g id="Lag_1-2" data-name="Lag 1"><path class="cls-1" d="M53.63,91.16l-23.54-.41a81.35,81.35,0,0,0,2.26,8.79l33.08.59a50.72,50.72,0,0,1-.89-43.8l-31.32-.56a81.74,81.74,0,0,0-2.37,8.72l23.25.41a4.38,4.38,0,1,1-.16,8.75l-24.45-.43c-.24,2.33-.44,4.67-.48,7,0,.55,0,1.14.06,1.7l24.72.44a4.38,4.38,0,1,1-.16,8.75Z"/><path class="cls-1" d="M71.05,108.94c-.08,0-.14,0-.22,0l-35.28-.62c1.17,2.89,2.48,5.84,3.89,8.82l40.91.73A51,51,0,0,1,71.05,108.94Z"/><path class="cls-1" d="M36.75,47.08l32.82.58A51.29,51.29,0,0,1,77.47,39l-35.95-.63A79.93,79.93,0,0,0,36.75,47.08Z"/><path class="cls-1" d="M112.17,0A81.5,81.5,0,0,0,47.72,29.76l42,.74a4.18,4.18,0,0,1,.93.21A50.81,50.81,0,1,1,92,124.43,4.35,4.35,0,0,1,88,126.8L43.87,126c1.55,2.93,3.22,5.89,4.93,8.84l56.58,1a4.38,4.38,0,1,1-.15,8.75l-51.14-.9c1.79,2.89,3.64,5.76,5.51,8.61a4.47,4.47,0,0,1,1.22-.23l61.28,1.09A4.38,4.38,0,0,1,122,162l-56.58-1a662.78,662.78,0,0,0,43,55.49s83.3-88.13,84.1-133.26A81.73,81.73,0,0,0,112.17,0Z"/><text class="cls-2" transform="translate(0 304.09)">JO<tspan class="cls-3" x="56.39" y="0">B</tspan><tspan x="90.79" y="0">VIEW</tspan></text></g></g></svg>