<svg xmlns="http://www.w3.org/2000/svg" viewBox="-6596.084 -209 36.917 36.917">
  <defs>
    <style>
      .cls-1 {
        fill: #3a3a3a;
      }
    </style>
  </defs>
  <g id="Group_10" data-name="Group 10" transform="translate(-6654.084 -206)">
    <path id="Path_20" data-name="Path 20" class="cls-1" d="M36.917,31.2,27.16,21.578A16.55,16.55,0,0,0,29.006,14.3,14.5,14.5,0,0,0,0,14.3,14.53,14.53,0,0,0,14.5,28.6a13.7,13.7,0,0,0,6.592-1.56l10.02,9.879ZM2.637,14.3A11.735,11.735,0,0,1,14.5,2.6a11.7,11.7,0,1,1,0,23.4A11.735,11.735,0,0,1,2.637,14.3" transform="translate(58 -3)"/>
  </g>
</svg>
