<svg xmlns="http://www.w3.org/2000/svg" viewBox="0 0 106.98 153.96"><defs><style>.cls-1{fill:#298892;}.cls-2{font-size:39.48px;fill:#104155;font-family:BebasNeueBold, Bebas Neue;font-weight:700;letter-spacing:0.02em;}.cls-3{letter-spacing:0.01em;}.cls-4{letter-spacing:0.02em;}</style></defs><title>logo_icon</title><g id="Lag_2" data-name="Lag 2"><g id="Lag_1-2" data-name="Lag 1"><path class="cls-1" d="M25.91,44l-11.38-.2a38.12,38.12,0,0,0,1.1,4.25l16,.28a24.49,24.49,0,0,1-.43-21.16l-15.13-.27a39.58,39.58,0,0,0-1.15,4.21l11.23.2a2.12,2.12,0,1,1-.07,4.23l-11.81-.21c-.12,1.12-.22,2.26-.24,3.41,0,.26,0,.55,0,.82L26,39.81A2.12,2.12,0,1,1,25.91,44Z"/><path class="cls-1" d="M34.32,52.63l-.11,0-17-.31c.57,1.4,1.2,2.83,1.88,4.27L38.81,57A24.89,24.89,0,0,1,34.32,52.63Z"/><path class="cls-1" d="M17.75,22.74,33.61,23a24.64,24.64,0,0,1,3.81-4.16l-17.36-.31A38.74,38.74,0,0,0,17.75,22.74Z"/><path class="cls-1" d="M54.18,0A39.33,39.33,0,0,0,23.05,14.37l20.3.36a3.13,3.13,0,0,1,.44.1,24.53,24.53,0,1,1,9.3,47.05,24.64,24.64,0,0,1-8.67-1.77,2.1,2.1,0,0,1-1.9,1.14l-21.33-.37c.75,1.41,1.55,2.84,2.38,4.27l27.34.48a2.12,2.12,0,0,1-.08,4.23l-24.7-.44q1.31,2.1,2.66,4.16a1.92,1.92,0,0,1,.59-.1L59,74a2.12,2.12,0,0,1-.07,4.23l-27.33-.48a320.54,320.54,0,0,0,20.75,26.8S92.57,62,93,40.18A39.47,39.47,0,0,0,54.18,0Z"/><text class="cls-2" transform="translate(0 146.89)">JO<tspan class="cls-3" x="27.24" y="0">B</tspan><tspan class="cls-4" x="43.86" y="0">VIEW</tspan></text></g></g></svg>