<svg xmlns="http://www.w3.org/2000/svg" viewBox="612 -8480 16 16"><defs><style>.a{fill:#fff;}</style></defs><path class="a" d="M14,0H2A2.006,2.006,0,0,0,0,2V14a2.006,2.006,0,0,0,2,2H14a2.006,2.006,0,0,0,2-2V2A2.006,2.006,0,0,0,14,0ZM12.9,5.5v.3a7.044,7.044,0,0,1-7.1,7.1A7.042,7.042,0,0,1,2,11.8h.6a4.69,4.69,0,0,0,3.1-1.1A2.37,2.37,0,0,1,3.4,9h.5a2.2,2.2,0,0,0,.8-.1A2.056,2.056,0,0,1,3,6.6H3c0,.2.4.3.8.3-.6-.5-1.4-1.3-1.4-2.1a2.768,2.768,0,0,1,.3-1.3A7.3,7.3,0,0,0,7.9,6.1c0-.2-.1-.4-.1-.6A2.611,2.611,0,0,1,10.3,3a2.342,2.342,0,0,1,1.8.8,4.418,4.418,0,0,0,1.6-.6,2.586,2.586,0,0,1-1.1,1.4A7.366,7.366,0,0,0,14,4.2h0A4.735,4.735,0,0,1,12.9,5.5Z" transform="translate(612 -8480)"/></svg>